<?xml version="1.0" standalone="no"?>
<!DOCTYPE svg PUBLIC "-//W3C//DTD SVG 20010904//EN"
 "http://www.w3.org/TR/2001/REC-SVG-20010904/DTD/svg10.dtd">
<svg version="1.0" xmlns="http://www.w3.org/2000/svg"
 width="512.000000pt" height="512.000000pt" viewBox="0 0 512.000000 512.000000"
 preserveAspectRatio="xMidYMid meet">
<metadata>
Created by potrace 1.14, written by Peter Selinger 2001-2017
</metadata>
<g transform="translate(0.000000,512.000000) scale(0.100000,-0.100000)"
fill="#000000" stroke="none">
<path d="M645 5110 c-299 -44 -536 -258 -622 -561 -17 -61 -18 -155 -18 -1989
l0 -1925 23 -78 c76 -265 271 -457 543 -534 61 -17 155 -18 1989 -18 l1925 0
78 23 c265 76 457 271 534 543 17 61 18 155 18 1989 l0 1925 -23 78 c-76 263
-265 451 -537 533 -57 18 -157 19 -1960 20 -1045 1 -1923 -2 -1950 -6z m1715
-1760 l0 -180 -320 0 -320 0 0 -870 0 -870 -215 0 -215 0 0 870 0 870 -320 0
-320 0 0 180 0 180 855 0 855 0 0 -180z m1870 -2100 l0 -180 -767 2 -768 3 -3
178 -2 177 770 0 770 0 0 -180z"/>
</g>
</svg>
